<svg xmlns="http://www.w3.org/2000/svg" width="24" height="24" viewBox="0 0 24 24">
  <path id="Icon_awesome-palette" data-name="Icon awesome-palette" d="M9.577.234a11.937,11.937,0,0,0-9.333,9.3C-1.49,18.3,6.418,24.834,12.376,23.911a2.959,2.959,0,0,0,1.992-4.3A3.172,3.172,0,0,1,17.223,15h3.736A3.067,3.067,0,0,0,24,11.939,12.009,12.009,0,0,0,9.577.234ZM4.5,15A1.5,1.5,0,1,1,6,13.5,1.5,1.5,0,0,1,4.5,15ZM6,9A1.5,1.5,0,1,1,7.5,7.5,1.5,1.5,0,0,1,6,9Zm6-3a1.5,1.5,0,1,1,1.5-1.5A1.5,1.5,0,0,1,12,6Zm6,3a1.5,1.5,0,1,1,1.5-1.5A1.5,1.5,0,0,1,18,9Z" transform="translate(-0.001 0.002)" fill="#0e5d24"/>
</svg>
