<svg xmlns="http://www.w3.org/2000/svg" width="20" height="26.667" viewBox="0 0 20 26.667">
  <path id="Icon_awesome-file-contract" data-name="Icon awesome-file-contract" d="M11.667,7.083V0H1.25A1.247,1.247,0,0,0,0,1.25V25.417a1.247,1.247,0,0,0,1.25,1.25h17.5A1.247,1.247,0,0,0,20,25.417V8.333H12.917A1.254,1.254,0,0,1,11.667,7.083ZM3.333,3.75a.417.417,0,0,1,.417-.417H7.917a.417.417,0,0,1,.417.417v.833A.417.417,0,0,1,7.917,5H3.75a.417.417,0,0,1-.417-.417Zm0,3.333a.417.417,0,0,1,.417-.417H7.917a.417.417,0,0,1,.417.417v.833a.417.417,0,0,1-.417.417H3.75a.417.417,0,0,1-.417-.417ZM13.376,20h2.458a.833.833,0,1,1,0,1.667H13.376a2.239,2.239,0,0,1-2.012-1.243.577.577,0,0,0-.53-.34.568.568,0,0,0-.522.322l-.4.8a.833.833,0,0,1-.745.46l-.059,0a.83.83,0,0,1-.731-.567L7.5,18.468l-.553,1.66a2.249,2.249,0,0,1-2.135,1.538H4.167a.833.833,0,1,1,0-1.667h.645a.584.584,0,0,0,.554-.4l.947-2.846a1.25,1.25,0,0,1,2.372,0l.723,2.169a2.337,2.337,0,0,1,3.438.738A.594.594,0,0,0,13.376,20Zm6.26-14.531-5.1-5.1A1.249,1.249,0,0,0,13.651,0h-.318V6.667H20V6.349A1.246,1.246,0,0,0,19.635,5.469Z" fill="#0e5d24"/>
</svg>
