<svg xmlns="http://www.w3.org/2000/svg" width="30" height="21.818" viewBox="0 0 30 21.818">
  <path id="Icon_awesome-readme" data-name="Icon awesome-readme" d="M27.516,3.27H20.234a5.355,5.355,0,0,0-5.229,4.182A5.36,5.36,0,0,0,9.776,3.27H2.5A2.5,2.5,0,0,0,0,5.77v12.8a2.5,2.5,0,0,0,2.5,2.5H7.172c5.323,0,6.911,1.271,7.672,3.906a.166.166,0,0,0,.313,0c.766-2.635,2.354-3.906,7.672-3.906H27.5a2.5,2.5,0,0,0,2.5-2.5V5.775A2.505,2.505,0,0,0,27.516,3.27ZM12.6,17.092a.181.181,0,0,1-.182.182H4.073a.181.181,0,0,1-.182-.182V15.9a.181.181,0,0,1,.182-.182h8.354a.181.181,0,0,1,.182.182v1.193Zm0-3.172a.181.181,0,0,1-.182.182H4.073a.181.181,0,0,1-.182-.182V12.728a.181.181,0,0,1,.182-.182h8.354a.181.181,0,0,1,.182.182v1.193Zm0-3.172a.181.181,0,0,1-.182.182H4.073a.181.181,0,0,1-.182-.182V9.556a.181.181,0,0,1,.182-.182h8.354a.181.181,0,0,1,.182.182v1.193Zm13.505,6.339a.181.181,0,0,1-.182.182H17.578a.181.181,0,0,1-.182-.182V15.895a.181.181,0,0,1,.182-.182h8.354a.181.181,0,0,1,.182.182v1.193Zm0-3.172a.181.181,0,0,1-.182.182H17.578a.181.181,0,0,1-.182-.182V12.723a.181.181,0,0,1,.182-.182h8.354a.181.181,0,0,1,.182.182v1.193Zm0-3.172a.181.181,0,0,1-.182.182H17.578a.181.181,0,0,1-.182-.182V9.556a.181.181,0,0,1,.182-.182h8.354a.181.181,0,0,1,.182.182v1.187Z" transform="translate(0 -3.27)" fill="#0e5d24"/>
</svg>
