<svg xmlns="http://www.w3.org/2000/svg" width="30" height="18" viewBox="0 0 30 18">
  <path id="Icon_payment-mastercard" d="M26.141,16.35a8.964,8.964,0,0,0-6,2.294,9,9,0,1,0,0,13.413,9,9,0,1,0,6-15.706ZM8.854,27.5l.52-3.267L8.186,27.5H7.518V24.236L6.924,27.5H6.033L6.776,23.2H8.112v2.673L9.078,23.2h1.411L9.746,27.5H8.854Zm4.158-.891a4.873,4.873,0,0,1-.149.668V27.5h-.743v-.371a1.075,1.075,0,0,1-.965.446.8.8,0,0,1-.594-.223,1.2,1.2,0,0,1-.223-.743,1.161,1.161,0,0,1,.371-.965,2.113,2.113,0,0,1,1.262-.371h.371v-.222c0-.2-.2-.3-.594-.3a4.167,4.167,0,0,0-.966.149c.048-.2.1-.446.149-.743a3.021,3.021,0,0,1,1.04-.223q1.262,0,1.262,1.04a3.534,3.534,0,0,1-.074.668q-.07.483-.149.965Zm2.673-1.782a2.284,2.284,0,0,0-.668-.074c-.3,0-.446.1-.446.3a.3.3,0,0,0,.074.223l.3.149a1.1,1.1,0,0,1,.668.965q0,1.189-1.411,1.188a4.4,4.4,0,0,1-.965-.074c.048-.2.1-.47.149-.817a4.037,4.037,0,0,0,.817.149c.345,0,.52-.1.52-.3a.309.309,0,0,0-.074-.223.947.947,0,0,0-.371-.223,1,1,0,0,1-.668-.965q0-1.187,1.337-1.188a3.44,3.44,0,0,1,.891.074l-.149.816Zm1.931.074H17.1a2.812,2.812,0,0,1-.074.668,2.315,2.315,0,0,1-.037.3.586.586,0,0,1-.111.3v.3a.262.262,0,0,0,.3.3.661.661,0,0,0,.3-.074l-.149.817a2.245,2.245,0,0,1-.668.074.656.656,0,0,1-.743-.743,3.49,3.49,0,0,1,.148-.965l.371-2.376h.891l-.074.52h.446l-.074.892Zm2.9,1.188H18.656a.716.716,0,0,0,.149.52.906.906,0,0,0,.668.223,1.964,1.964,0,0,0,.965-.3l-.148.891a2.627,2.627,0,0,1-.966.148,1.378,1.378,0,0,1-1.559-1.56,2.217,2.217,0,0,1,.446-1.485,1.345,1.345,0,0,1,1.114-.594,1.309,1.309,0,0,1,.965.371,1.216,1.216,0,0,1,.3.891,4.682,4.682,0,0,1-.074.891ZM22,25.424a14.57,14.57,0,0,0-.371,2.079h-.966l.074-.223q.3-2.078.446-3.267h.891l-.074.52a.951.951,0,0,1,.446-.446.323.323,0,0,1,.446-.074,5.54,5.54,0,0,0-.371,1.04c-.2-.049-.372.074-.52.371Zm3.342,2.005a1.847,1.847,0,0,1-.817.148,1.485,1.485,0,0,1-1.188-.52,1.816,1.816,0,0,1-.446-1.337,2.872,2.872,0,0,1,.594-1.857,1.7,1.7,0,0,1,1.485-.743,3.559,3.559,0,0,1,1.04.223l-.149.891a1.852,1.852,0,0,0-.817-.223,1,1,0,0,0-.891.446,1.9,1.9,0,0,0-.3,1.188,1.024,1.024,0,0,0,.223.743.7.7,0,0,0,.594.3,1.847,1.847,0,0,0,.817-.223l-.148.966Zm3.3-2.153a2.207,2.207,0,0,0-.037.371c-.05.248-.1.582-.149,1a5.184,5.184,0,0,1-.149.854h-.743v-.371a1.075,1.075,0,0,1-.965.446.8.8,0,0,1-.594-.223,1.2,1.2,0,0,1-.223-.743,1.161,1.161,0,0,1,.371-.965,1.991,1.991,0,0,1,1.188-.371h.371a.3.3,0,0,0,.074-.223c0-.2-.2-.3-.594-.3a4.167,4.167,0,0,0-.965.149,2.4,2.4,0,0,1,.149-.743,3.021,3.021,0,0,1,1.04-.223q1.262,0,1.263,1.04a2.155,2.155,0,0,1-.036.3Zm1.448.148a15,15,0,0,0-.371,2.079h-.965l.074-.223q.294-1.623.446-3.267h.891a1.681,1.681,0,0,1-.074.52.949.949,0,0,1,.446-.446.531.531,0,0,1,.446-.074,1.979,1.979,0,0,0-.371,1.04c-.2-.049-.371.074-.52.371ZM32.616,27.5l.074-.3a.989.989,0,0,1-.817.371.87.87,0,0,1-.817-.371,1.77,1.77,0,0,1-.371-1.04,2.285,2.285,0,0,1,.52-1.56,1.164,1.164,0,0,1,1.04-.594,1.284,1.284,0,0,1,.891.446l.149-1.262h.965L33.508,27.5h-.891Zm-21.386-1.04c0,.248.1.371.3.371a.5.5,0,0,0,.446-.223.908.908,0,0,0,.223-.668h-.223c-.5,0-.742.174-.742.52Zm8.391-1.634a.21.21,0,0,1-.148-.074h-.149q-.445,0-.594.594h1.04v-.223l-.074-.149a.224.224,0,0,0-.075-.148Zm7.054,1.634c0,.248.1.371.3.371a.5.5,0,0,0,.446-.223.907.907,0,0,0,.223-.668h-.223c-.5,0-.743.174-.743.52Zm5.718-1.634a.627.627,0,0,0-.52.371,1.574,1.574,0,0,0-.148.817q0,.669.446.668a.643.643,0,0,0,.52-.3,1.473,1.473,0,0,0,.223-.891c0-.445-.175-.668-.52-.668Z" transform="translate(-5.141 -16.35)" fill="#266c29"/>
</svg>
