<svg xmlns="http://www.w3.org/2000/svg" width="20" height="23.333" viewBox="0 0 20 23.333">
  <path id="Icon_metro-language" data-name="Icon metro-language" d="M13.286,16.24q-.013.039-.163-.007t-.41-.15l-.26-.117a7.8,7.8,0,0,1-1.133-.638q-.091-.065-.534-.41t-.495-.371A22.183,22.183,0,0,1,8.546,16.9a9.68,9.68,0,0,1-1.367,1.432,1.032,1.032,0,0,1-.254.052.5.5,0,0,1-.241,0q.078-.052,1.068-1.2.273-.312,1.113-1.5a18.2,18.2,0,0,0,1.022-1.536q.221-.391.664-1.283a10.149,10.149,0,0,0,.469-1.009,10.7,10.7,0,0,0-1.432.43q-.1.026-.358.1t-.449.124a2.231,2.231,0,0,0-.221.065.221.221,0,0,0-.026.137.289.289,0,0,1-.013.124q-.065.13-.4.2a1.05,1.05,0,0,1-.612,0,.549.549,0,0,1-.365-.273.662.662,0,0,1-.065-.3,2.516,2.516,0,0,1,.319-.065,3.888,3.888,0,0,0,.384-.078q.755-.208,1.367-.417,1.3-.456,1.328-.456a2.889,2.889,0,0,0,.56-.254,5.89,5.89,0,0,1,.573-.28q.117-.039.28-.1t.189-.072a.174.174,0,0,1,.078.007,1.482,1.482,0,0,1-.013.43,2.773,2.773,0,0,1-.163.352q-.163.326-.345.7t-.221.436a19.529,19.529,0,0,1-1,1.706l.833.365q.156.078.97.417l.879.365q.052.013.137.332a.986.986,0,0,1,.059.4ZM10.616,9.912a.528.528,0,0,1-.052.365,1.18,1.18,0,0,1-.651.495,2.09,2.09,0,0,1-.781.156,1.078,1.078,0,0,1-.638-.339.979.979,0,0,1-.234-.534l.013-.039a.557.557,0,0,0,.254.065,1.132,1.132,0,0,0,.345,0q.13-.026.755-.208a3.718,3.718,0,0,1,.716-.182.257.257,0,0,1,.273.221Zm9.089,1.68.82,2.956L18.715,14ZM5.278,22.008l9.036-3.021V5.55L5.278,8.584V22.008Zm16.159-4.128,1.328.4L20.408,9.73l-1.3-.4-2.813,6.979,1.328.4.586-1.432,2.747.846ZM14.887,5.355l7.461,2.4V2.8Zm4.049,17.227,2.057.169-.7,2.083-.521-.859a9.652,9.652,0,0,1-3.594,1.406,6.241,6.241,0,0,1-1.185.156H13.9a8.8,8.8,0,0,1-2.6-.508,8.647,8.647,0,0,1-2.389-1.107.271.271,0,0,1-.1-.208.252.252,0,0,1,.065-.176.218.218,0,0,1,.169-.072.733.733,0,0,1,.234.1l.4.215q.215.117.267.143a11.536,11.536,0,0,0,2.077.8,7.587,7.587,0,0,0,2.051.319,11.112,11.112,0,0,0,2.175-.189,10.732,10.732,0,0,0,2.044-.658q.2-.091.4-.2t.443-.247q.241-.137.371-.215ZM24.77,8.532V22.581l-10.078-3.2q-.182.078-4.883,1.66T5.017,22.62a.236.236,0,0,1-.234-.169.1.1,0,0,0-.013-.039V8.375a.581.581,0,0,1,.052-.13.586.586,0,0,1,.26-.143q1.38-.456,1.94-.651v-5l7.266,2.578q.026,0,2.09-.716T20.493,2.9q2.051-.7,2.1-.7.26,0,.26.273V7.92Z" transform="translate(-4.77 -2.203)" fill="#4caf50"/>
</svg>
