<svg xmlns="http://www.w3.org/2000/svg" width="28.339" height="23.174" viewBox="0 0 28.339 23.174">
  <g id="Icon_ionic-ios-partly-sunny" data-name="Icon ionic-ios-partly-sunny" transform="translate(-1.125 -4.159)">
    <g id="Group_13" data-name="Group 13" transform="translate(1.125 4.5)">
      <path id="Path_40" data-name="Path 40" d="M11.827,4.5h-.021a1.113,1.113,0,0,0-1.111,1.111v2.13a1.113,1.113,0,0,0,1.111,1.111h.021a1.113,1.113,0,0,0,1.111-1.111V5.611A1.113,1.113,0,0,0,11.827,4.5Z" transform="translate(-1.125 -4.841)" fill="gray"/>
      <path id="Path_41" data-name="Path 41" d="M5.555,15.2V15.18A1.113,1.113,0,0,0,4.444,14.07H2.236A1.113,1.113,0,0,0,1.125,15.18V15.2a1.113,1.113,0,0,0,1.111,1.111h2.2A1.115,1.115,0,0,0,5.555,15.2Z" transform="translate(-1.125 -4.5)" fill="gray"/>
      <path id="Path_42" data-name="Path 42" d="M5.6,10.477A1.111,1.111,0,1,0,7.179,8.909L5.752,7.467a1.113,1.113,0,0,0-.787-.33h0a1.114,1.114,0,0,0-.787,1.9Z" transform="translate(-1.64 -4.961)" fill="gray"/>
      <path id="Path_43" data-name="Path 43" d="M19.055,7.4a1.113,1.113,0,0,0-.788-.33h0a1.113,1.113,0,0,0-.788.33L16.052,8.831a1.116,1.116,0,0,0,0,1.568l.021.021h.007a1.092,1.092,0,0,0,.759.3,1.113,1.113,0,0,0,.788-.33l1.427-1.434A1.108,1.108,0,0,0,19.055,7.4Z" transform="translate(-1.125 -4.5)" fill="gray"/>
      <path id="Path_44" data-name="Path 44" d="M6.532,19.216h0a1.113,1.113,0,0,0-.787.33L4.317,20.988a1.111,1.111,0,1,0,1.575,1.568L7.32,21.115a1.114,1.114,0,0,0-.787-1.9Z" transform="translate(-1.125 -4.5)" fill="gray"/>
    </g>
    <path id="Path_45" data-name="Path 45" d="M27.088,17.854h-.159a4.381,4.381,0,0,0-.595.026,7.425,7.425,0,0,0-9.986-5.307,7.309,7.309,0,0,0-.972.469A7.456,7.456,0,0,0,11.662,19.1c-.007.139-.013.271-.013.41,0,.225.013.449.033.668,0,.026.007.053.007.073a5.065,5.065,0,0,0,.443,10.092H27.095a6.243,6.243,0,0,0-.007-12.484Z" transform="translate(-3.757 -3.006)" fill="gray"/>
    <path id="Path_46" data-name="Path 46" d="M10.6,19.941V19.92c-.021-.239-.035-.478-.035-.717,0-.148.007-.3.014-.443A8.06,8.06,0,0,1,14.6,12.213a7.555,7.555,0,0,1,1.048-.506h.007A5.152,5.152,0,1,0,10.6,19.941Z" transform="translate(-0.799 -1.167)" fill="gray"/>
  </g>
</svg>
