<svg xmlns="http://www.w3.org/2000/svg" width="43.125" height="40" viewBox="0 0 43.125 40">
  <path id="Path_268" data-name="Path 268" d="M42.436,35.357a2.728,2.728,0,0,1,.714,1.786,5.076,5.076,0,0,1-.714,2.143C42.079,40,41.364,40,40.293,40H2.793a2.7,2.7,0,0,1-2.5-1.429,3.912,3.912,0,0,1,0-2.857L18.864,1.429A2.7,2.7,0,0,1,21.364,0a2.7,2.7,0,0,1,2.5,1.429ZM21.364,26.071h0c.714,0,1.071,0,1.429-.357,0-.714.357-1.071.357-1.429.357-1.786.714-5.714,1.429-11.071a1.312,1.312,0,0,0-.357-1.071c0-.357-.357-.714-1.071-.714a7.3,7.3,0,0,0-3.929,0c-.357,0-.714.357-1.071.714v1.071c.714,5.357,1.071,9.286,1.429,11.071,0,.357.357.714.714,1.071S21.007,26.071,21.364,26.071ZM19.221,35a2.679,2.679,0,0,0,4.286,0c.357-.714,1.071-1.429,1.071-2.143a3.087,3.087,0,0,0-1.071-2.143,2.16,2.16,0,0,0-2.143-1.071,2.16,2.16,0,0,0-2.143,1.071,3.087,3.087,0,0,0-1.071,2.143A2.546,2.546,0,0,0,19.221,35Z" transform="translate(-0.025)" fill="#f7ff00"/>
</svg>
