<svg xmlns="http://www.w3.org/2000/svg" width="29.25" height="29.25" viewBox="0 0 29.25 29.25">
  <g id="Icon_ionic-ios-sunny" data-name="Icon ionic-ios-sunny" transform="translate(-3.375 -3.375)">
    <g id="Group_12" data-name="Group 12">
      <path id="Path_31" data-name="Path 31" d="M18,27.211a1.083,1.083,0,0,0-1.083,1.083v3.248a1.083,1.083,0,0,0,2.166,0V28.294A1.083,1.083,0,0,0,18,27.211Z" fill="gray"/>
      <path id="Path_32" data-name="Path 32" d="M18,3.375a1.083,1.083,0,0,0-1.083,1.083V7.706a1.083,1.083,0,0,0,2.166,0V4.458A1.083,1.083,0,0,0,18,3.375Z" fill="gray"/>
      <path id="Path_33" data-name="Path 33" d="M8.789,18a1.083,1.083,0,0,0-1.083-1.083H4.458a1.083,1.083,0,0,0,0,2.166H7.706A1.083,1.083,0,0,0,8.789,18Z" fill="gray"/>
      <path id="Path_34" data-name="Path 34" d="M31.542,16.917H28.294a1.083,1.083,0,0,0,0,2.166h3.248a1.083,1.083,0,0,0,0-2.166Z" fill="gray"/>
      <path id="Path_35" data-name="Path 35" d="M10.723,24.195a1.08,1.08,0,0,0-.766.316l-2.3,2.3A1.084,1.084,0,0,0,9.19,28.343l2.3-2.3a1.083,1.083,0,0,0-.766-1.849Z" fill="gray"/>
      <path id="Path_36" data-name="Path 36" d="M25.277,11.805a1.08,1.08,0,0,0,.766-.316l2.3-2.3A1.084,1.084,0,0,0,26.81,7.657l-2.3,2.3a1.083,1.083,0,0,0,.766,1.849Z" fill="gray"/>
      <path id="Path_37" data-name="Path 37" d="M9.19,7.657A1.084,1.084,0,0,0,7.657,9.19l2.3,2.3a1.084,1.084,0,0,0,1.533-1.533Z" fill="gray"/>
      <path id="Path_38" data-name="Path 38" d="M26.044,24.511a1.084,1.084,0,1,0-1.533,1.533l2.3,2.3a1.084,1.084,0,0,0,1.533-1.533Z" fill="gray"/>
    </g>
    <path id="Path_39" data-name="Path 39" d="M18,11.25A6.75,6.75,0,1,0,24.75,18,6.761,6.761,0,0,0,18,11.25Z" fill="gray"/>
  </g>
</svg>
