<svg xmlns="http://www.w3.org/2000/svg" width="60" height="19.395" viewBox="0 0 60 19.395">
  <path id="Icon_payment-visa" d="M12.678,20.981a1.952,1.952,0,0,0-2.2-1.582H2.628l-.058.38c5.39,1.378,9.815,4.307,11.807,9.845Zm2.2,11.25-.5-2.608a11.762,11.762,0,0,0-6.33-6.388L12,38.178h5.128L24.779,19.4H19.621L14.876,32.231Zm13.682,5.975L31.6,19.4H26.741L23.693,38.206Zm13.27-19.13c-4.8,0-8.173,2.55-8.2,6.21-.03,2.7,2.4,4.19,4.247,5.1,1.9.908,2.52,1.523,2.52,2.342,0,1.26-1.523,1.817-2.9,1.817a9.217,9.217,0,0,1-4.57-.967l-.645-.322L31.6,37.474a14.169,14.169,0,0,0,5.42,1c5.1.03,8.41-2.52,8.467-6.415,0-2.14-1.318-3.75-4.1-5.1-1.7-.848-2.723-1.465-2.723-2.342,0-.79.878-1.612,2.783-1.612a8.081,8.081,0,0,1,3.632.7l.44.233.673-4.072a12.086,12.086,0,0,0-4.365-.791ZM54.9,19.4a2.4,2.4,0,0,0-2.55,1.582L45.138,38.206h5.1c.822-2.313,1.027-2.813,1.027-2.813h6.21s.148.645.585,2.813h4.513L58.646,19.4H54.9Zm-2.257,12.13s.41-1.085,1.935-5.245c-.03.03.41-1.085.645-1.787l.35,1.612c.908,4.483,1.115,5.42,1.115,5.42Z" transform="translate(-2.571 -19.076)" fill="#fff"/>
</svg>
