<svg xmlns="http://www.w3.org/2000/svg" width="16" height="10.667" viewBox="0 0 16 10.667">
  <path id="Icon_awesome-inbox" data-name="Icon awesome-inbox" d="M15.776,9.5l-2.936-4.4A1.333,1.333,0,0,0,11.731,4.5H4.269a1.333,1.333,0,0,0-1.109.594L.224,9.5a1.333,1.333,0,0,0-.224.74v3.6a1.333,1.333,0,0,0,1.333,1.333H14.667A1.333,1.333,0,0,0,16,13.833v-3.6a1.333,1.333,0,0,0-.224-.74ZM4.507,6.278h6.986l2.37,3.556H10.444l-.889,1.778H6.444L5.556,9.833H2.137l2.37-3.556Z" transform="translate(0 -4.5)" fill="#4caf50"/>
</svg>
