<svg xmlns="http://www.w3.org/2000/svg" width="18" height="13.5" viewBox="0 0 18 13.5">
  <path id="Icon_metro-profile" data-name="Icon metro-profile" d="M21.213,9.641H19.954V7.752l-2.6-.04.014,1.929H9.561l.053-1.929-2.544.04V9.681l-1.286-.04A1.286,1.286,0,0,0,4.5,10.926v9a1.286,1.286,0,0,0,1.286,1.286H21.213A1.286,1.286,0,0,0,22.5,19.926v-9A1.286,1.286,0,0,0,21.213,9.641ZM18,8.355h1.286v2.571H18ZM9.642,12.734a1.674,1.674,0,0,1,1.407,1.848,1.674,1.674,0,0,1-1.407,1.848,1.674,1.674,0,0,1-1.407-1.848,1.674,1.674,0,0,1,1.407-1.848ZM7.713,8.355H9v2.571H7.713ZM6.856,18.607s.152-1.223.5-1.453A4.93,4.93,0,0,1,8.7,16.769s.647.691.922.691.921-.691.921-.691a4.915,4.915,0,0,1,1.344.384c.407.271.508,1.453.508,1.453H6.856ZM19.927,18H14.142v-.643h5.786Zm0-1.286H14.142v-.643h5.786Zm0-1.286H14.142v-.643h5.786Zm0-1.286H14.142V13.5h5.786Z" transform="translate(-4.499 -7.712)" fill="#4caf50"/>
</svg>
