<svg xmlns="http://www.w3.org/2000/svg" width="26" height="16.545" viewBox="0 0 26 16.545">
  <path id="Icon_material-people" d="M19.227,14.591a3.545,3.545,0,1,0-3.545-3.545A3.531,3.531,0,0,0,19.227,14.591Zm-9.455,0a3.545,3.545,0,1,0-3.545-3.545A3.531,3.531,0,0,0,9.773,14.591Zm0,2.364c-2.754,0-8.273,1.383-8.273,4.136v2.955H18.045V21.091C18.045,18.337,12.526,16.955,9.773,16.955Zm9.455,0c-.343,0-.733.024-1.146.059a4.987,4.987,0,0,1,2.328,4.077v2.955H27.5V21.091C27.5,18.337,21.981,16.955,19.227,16.955Z" transform="translate(-1.5 -7.5)" fill="#4caf50"/>
</svg>
